# Blender v2.78 (sub 0) OBJ File: 'cubetex1.blend'
# www.blender.org
mtllib cubetex1.mtl
o Cube
v -1.000000 -1.000000 1.000000
v -1.000000 1.000000 1.000000
v -1.000000 -1.000000 -1.000000
v -1.000000 1.000000 -1.000000
v 1.000000 -1.000000 1.000000
v 1.000000 1.000000 1.000000
v 1.000000 -1.000000 -1.000000
v 1.000000 1.000000 -1.000000
vt 0.2500 0.5000
vt 0.2500 0.7500
vt 0.0000 0.7500
vt 0.0000 0.5000
vt 0.5000 0.7500
vt 0.5000 1.0000
vt 0.2500 1.0000
vt 0.5000 0.5000
vt 0.7500 0.5000
vt 0.7500 0.7500
vt 0.2500 0.2500
vt 0.5000 0.2500
vt 1.0000 0.5000
vt 1.0000 0.7500
vn -1.0000 0.0000 0.0000
vn 0.0000 0.0000 -1.0000
vn 1.0000 0.0000 0.0000
vn 0.0000 0.0000 1.0000
vn 0.0000 -1.0000 0.0000
vn 0.0000 1.0000 0.0000
usemtl Material
s off
f 2/1/1 4/2/1 3/3/1 1/4/1
f 4/2/2 8/5/2 7/6/2 3/7/2
f 8/5/3 6/8/3 5/9/3 7/10/3
f 6/8/4 2/1/4 1/11/4 5/12/4
f 1/13/5 3/14/5 7/10/5 5/9/5
f 6/8/6 8/5/6 4/2/6 2/1/6
